<?xml version="1.0" encoding="UTF-8" standalone="no"?>
<!DOCTYPE svg PUBLIC "-//W3C//DTD SVG 1.1//EN" "http://www.w3.org/Graphics/SVG/1.1/DTD/svg11.dtd">
<svg width="100%" height="100%" viewBox="0 0 27 20" version="1.1" xmlns="http://www.w3.org/2000/svg" xmlns:xlink="http://www.w3.org/1999/xlink" xml:space="preserve" xmlns:serif="http://www.serif.com/" style="fill-rule:evenodd;clip-rule:evenodd;stroke-linecap:round;stroke-linejoin:round;stroke-miterlimit:1.5;">
    <g transform="matrix(1,0,0,1,-2.728235,-6.110769)">
        <g transform="matrix(0.902361,0,0,0.952381,1.925339,-0.214286)">
            <g transform="matrix(1.04,0,0.094913,0.968131,-3.722646,0.860454)">
                <path d="M29,9.376L29,25.624C29,26.383 28.394,27 27.648,27L5.352,27C4.606,27 4,26.383 4,25.624L4,9.376C4,8.617 4.606,8 5.352,8L27.648,8C28.394,8 29,8.617 29,9.376Z" style="fill:rgb(204,154,38);stroke:rgb(53,23,0);stroke-width:0.8px;"/>
            </g>
        </g>
        <g transform="matrix(0.902361,0,0,0.952381,1.925339,-0.214286)">
            <g transform="matrix(1.028776,0,0.047456,0.911842,-2.220575,2.117763)">
                <path d="M29,9.376L29,25.624C29,26.383 28.423,27 27.713,27L5.287,27C4.577,27 4,26.383 4,25.624L4,9.376C4,8.617 4.577,8 5.287,8L27.713,8C28.423,8 29,8.617 29,9.376Z" style="fill:rgb(206,206,206);stroke:rgb(69,69,69);stroke-width:0.33px;"/>
            </g>
        </g>
        <g transform="matrix(0.902361,0,0,0.952381,1.925339,-0.214286)">
            <g transform="matrix(1.028776,0,0.014301,0.884211,-1.32538,2.863816)">
                <path d="M29,9.376L29,25.624C29,26.383 28.441,27 27.752,27L5.248,27C4.559,27 4,26.383 4,25.624L4,9.376C4,8.617 4.559,8 5.248,8L27.752,8C28.441,8 29,8.617 29,9.376Z" style="fill:rgb(206,206,206);stroke:rgb(69,69,69);stroke-width:0.34px;"/>
            </g>
        </g>
        <g transform="matrix(0.902361,0,0,0.952381,1.925339,-0.214286)">
            <g transform="matrix(1,0,-0.051038,1,1.378031,0)">
                <path d="M4.233,11C3.543,11 3,11.514 3,12.167C3,15.084 3,22.675 3,25.715C3,26.05 3.145,26.377 3.402,26.62C3.659,26.863 4.004,27 4.358,27C8.888,27 23.436,27 27.77,27C28.459,27 29.001,26.488 29.003,25.836C29.013,22.346 29.04,11.986 29.05,8.338C29.051,8.003 28.906,7.675 28.649,7.431C28.393,7.188 28.047,7.05 27.692,7.05C25.172,7.05 19.818,7.05 17.411,7.05C16.727,7.05 16.187,7.554 16.178,8.201C16.171,8.72 16.163,9.33 16.156,9.849C16.147,10.496 15.607,11 14.923,11C12.425,11 6.744,11 4.233,11Z" style="fill:rgb(204,154,38);stroke:rgb(53,23,0);stroke-width:0.86px;"/>
            </g>
        </g>
    </g>
</svg>
