<?xml version="1.0" encoding="UTF-8" standalone="no"?>
<!DOCTYPE svg PUBLIC "-//W3C//DTD SVG 1.1//EN" "http://www.w3.org/Graphics/SVG/1.1/DTD/svg11.dtd">
<svg width="100%" height="100%" viewBox="0 0 27 27" version="1.1" xmlns="http://www.w3.org/2000/svg" xmlns:xlink="http://www.w3.org/1999/xlink" xml:space="preserve" xmlns:serif="http://www.serif.com/" style="fill-rule:evenodd;clip-rule:evenodd;stroke-linecap:round;stroke-linejoin:round;stroke-miterlimit:1.5;">
    <g transform="matrix(1,0,0,1,-2.5,-2.5)">
        <path d="M29,6.889L29,25.111C29,27.258 27.258,29 25.111,29L6.889,29C4.742,29 3,27.258 3,25.111L3,6.889C3,4.742 4.742,3 6.889,3L25.111,3C27.258,3 29,4.742 29,6.889Z" style="fill:rgb(223,225,234);stroke:rgb(158,159,184);stroke-width:1px;"/>
        <path d="M14.586,16C14.586,16 9.833,11.247 8.403,9.817C8.335,9.749 8.234,9.729 8.146,9.766C8.057,9.802 8,9.888 8,9.983C8,10.52 8,11.243 8,11.243C8,11.795 7.552,12.243 7,12.243C6.448,12.243 6,11.795 6,11.243L6,7.488C6,6.666 6.666,6 7.488,6L11.243,6C11.795,6 12.243,6.448 12.243,7C12.243,7.552 11.795,8 11.243,8C11.243,8 10.52,8 9.984,8C9.888,8 9.802,8.057 9.766,8.146C9.729,8.234 9.749,8.335 9.817,8.403C11.247,9.833 16,14.586 16,14.586C16,14.586 20.753,9.833 22.183,8.403C22.251,8.335 22.271,8.234 22.234,8.146C22.198,8.057 22.112,8 22.016,8C21.48,8 20.757,8 20.757,8C20.205,8 19.757,7.552 19.757,7C19.757,6.448 20.205,6 20.757,6L24.512,6C25.334,6 26,6.666 26,7.488C26,9.038 26,11.243 26,11.243C26,11.795 25.552,12.243 25,12.243C24.448,12.243 24,11.795 24,11.243C24,11.243 24,10.52 24,9.984C24,9.888 23.943,9.802 23.854,9.766C23.766,9.729 23.665,9.749 23.597,9.817C22.167,11.247 17.414,16 17.414,16C17.414,16 22.167,20.753 23.597,22.183C23.665,22.251 23.766,22.271 23.854,22.234C23.943,22.198 24,22.112 24,22.016C24,21.48 24,20.757 24,20.757C24,20.205 24.448,19.757 25,19.757C25.552,19.757 26,20.205 26,20.757L26,24.512C26,25.334 25.334,26 24.512,26C22.962,26 20.757,26 20.757,26C20.205,26 19.757,25.552 19.757,25C19.757,24.448 20.205,24 20.757,24C20.757,24 21.48,24 22.016,24C22.112,24 22.198,23.943 22.234,23.854C22.271,23.766 22.251,23.665 22.183,23.597C20.753,22.167 16,17.414 16,17.414C16,17.414 11.247,22.167 9.817,23.597C9.749,23.665 9.729,23.766 9.766,23.854C9.802,23.943 9.888,24 9.984,24C10.52,24 11.243,24 11.243,24C11.795,24 12.243,24.448 12.243,25C12.243,25.552 11.795,26 11.243,26L7.488,26C6.666,26 6,25.334 6,24.512L6,20.757C6,20.205 6.448,19.757 7,19.757C7.552,19.757 8,20.205 8,20.757C8,20.757 8,21.48 8,22.016C8,22.112 8.057,22.198 8.146,22.234C8.234,22.271 8.335,22.251 8.403,22.183C9.833,20.753 14.586,16 14.586,16Z" style="fill:rgb(82,83,102);"/>
    </g>
</svg>
