<?xml version="1.0" encoding="UTF-8" standalone="no"?>
<!DOCTYPE svg PUBLIC "-//W3C//DTD SVG 1.1//EN" "http://www.w3.org/Graphics/SVG/1.1/DTD/svg11.dtd">
<svg width="100%" height="100%" viewBox="0 0 28 28" version="1.1" xmlns="http://www.w3.org/2000/svg" xmlns:xlink="http://www.w3.org/1999/xlink" xml:space="preserve" xmlns:serif="http://www.serif.com/" style="fill-rule:evenodd;clip-rule:evenodd;stroke-linecap:round;stroke-linejoin:round;stroke-miterlimit:1.5;">
    <g transform="matrix(1,0,0,1,-2.427088,-2.427088)">
        <g transform="matrix(1.819224,0,0,1.819224,-3.141354,-1.282628)">
            <circle cx="10.522" cy="9.5" r="5.478"/>
        </g>
        <g transform="matrix(1.285837,0,0,1.285837,2.470789,3.784546)">
            <circle cx="10.522" cy="9.5" r="5.478" style="fill:none;stroke:white;stroke-width:0.2px;"/>
        </g>
        <g transform="matrix(0.58256,0,0,0.58256,9.870471,10.46568)">
            <circle cx="10.522" cy="9.5" r="5.478" style="stroke:white;stroke-width:2.25px;"/>
        </g>
        <g transform="matrix(1.50058,0,0,1.50058,-7.25899,-8.00928)">
            <path d="M24.5,12.88L24.5,16.82C23.499,14.372 21.489,11.699 17.457,10.835C16.602,10.651 15.657,10.55 14.612,10.548C19.068,9.109 22.432,10.994 24.5,12.88Z" style="fill:white;stroke:rgb(0,4,52);stroke-width:0.09px;"/>
        </g>
        <g transform="matrix(1.50058,0,0,1.50058,-7.25899,-8.00928)">
            <path d="M14.68,25L10.155,25C8.486,25 7.076,23.879 6.64,22.349C8.799,23.292 14.6,25.143 18.995,20.277C19.581,19.629 20.142,18.861 20.665,17.957C19.801,21.989 17.128,23.999 14.68,25Z" style="fill:white;stroke:rgb(0,4,52);stroke-width:0.09px;"/>
        </g>
        <g transform="matrix(1.50058,0,0,1.50058,-7.25899,-8.00928)">
            <path d="M21.849,24.86C21.53,24.951 21.193,25 20.845,25L18.62,25C20.506,22.932 22.391,19.568 20.952,15.112C20.683,14.28 20.299,13.411 19.777,12.505C24.643,16.9 22.792,22.701 21.849,24.86Z" style="fill:rgb(75,80,102);stroke:rgb(0,4,52);stroke-width:0.09px;"/>
        </g>
        <g transform="matrix(1.50058,0,0,1.50058,-7.25899,-8.00928)">
            <path d="M6.5,19.12L6.5,15.18C7.501,17.628 9.511,20.301 13.543,21.165C14.398,21.349 15.343,21.45 16.388,21.452C11.932,22.891 8.568,21.006 6.5,19.12Z" style="fill:rgb(75,80,102);stroke:rgb(0,4,52);stroke-width:0.09px;"/>
        </g>
        <g transform="matrix(1.50058,0,0,1.50058,-7.25899,-8.00928)">
            <path d="M9.151,7.14C9.47,7.049 9.807,7 10.155,7L12.38,7C10.494,9.068 8.609,12.432 10.048,16.888C10.317,17.72 10.701,18.589 11.223,19.495C6.357,15.1 8.208,9.299 9.151,7.14Z" style="fill:white;stroke:rgb(0,4,52);stroke-width:0.09px;"/>
        </g>
        <g transform="matrix(1.50058,0,0,1.50058,-7.25899,-8.00928)">
            <path d="M16.32,7L20.845,7C22.514,7 23.924,8.121 24.36,9.651C22.201,8.708 16.4,6.857 12.005,11.723C11.419,12.371 10.858,13.139 10.335,14.043C11.199,10.011 13.872,8.001 16.32,7Z" style="fill:rgb(75,80,102);stroke:rgb(0,4,52);stroke-width:0.09px;"/>
        </g>
        <g transform="matrix(1.50058,0,0,1.50058,-7.25899,-8.00928)">
            <path d="M18.62,25L14.68,25C17.128,23.999 19.801,21.989 20.665,17.957C20.849,17.102 20.95,16.157 20.952,15.112C22.391,19.568 20.506,22.932 18.62,25Z" style="fill:rgb(215,214,226);stroke:rgb(0,4,52);stroke-width:0.09px;"/>
        </g>
        <g transform="matrix(1.50058,0,0,1.50058,-7.25899,-8.00928)">
            <path d="M24.5,16.82L24.5,21.345C24.5,23.014 23.379,24.424 21.849,24.86C22.792,22.701 24.643,16.9 19.777,12.505C19.129,11.919 18.361,11.358 17.457,10.835C21.489,11.699 23.499,14.372 24.5,16.82Z" style="stroke:rgb(0,4,52);stroke-width:0.09px;"/>
        </g>
        <g transform="matrix(1.50058,0,0,1.50058,-7.25899,-8.00928)">
            <path d="M6.64,22.349C6.549,22.03 6.5,21.693 6.5,21.345L6.5,19.12C8.568,21.006 11.932,22.891 16.388,21.452C17.22,21.183 18.089,20.799 18.995,20.277C14.6,25.143 8.799,23.292 6.64,22.349Z" style="stroke:rgb(0,4,52);stroke-width:0.09px;"/>
        </g>
        <g transform="matrix(1.50058,0,0,1.50058,-7.25899,-8.00928)">
            <path d="M6.5,15.18L6.5,10.655C6.5,8.986 7.621,7.576 9.151,7.14C8.208,9.299 6.357,15.1 11.223,19.495C11.871,20.081 12.639,20.642 13.543,21.165C9.511,20.301 7.501,17.628 6.5,15.18Z" style="fill:rgb(215,214,226);stroke:rgb(0,4,52);stroke-width:0.09px;"/>
        </g>
        <g transform="matrix(1.50058,0,0,1.50058,-7.25899,-8.00928)">
            <path d="M12.38,7L16.32,7C13.872,8.001 11.199,10.011 10.335,14.043C10.151,14.898 10.05,15.843 10.048,16.888C8.609,12.432 10.494,9.068 12.38,7Z" style="stroke:rgb(0,4,52);stroke-width:0.09px;"/>
        </g>
        <g transform="matrix(1.50058,0,0,1.50058,-7.25899,-8.00928)">
            <path d="M24.36,9.651C24.451,9.97 24.5,10.307 24.5,10.655L24.5,12.88C22.432,10.994 19.068,9.109 14.612,10.548C13.78,10.817 12.911,11.201 12.005,11.723C16.4,6.857 22.201,8.708 24.36,9.651Z" style="fill:rgb(215,214,226);stroke:rgb(0,4,52);stroke-width:0.09px;"/>
        </g>
    </g>
</svg>
