<?xml version="1.0" encoding="UTF-8" standalone="no"?>
<!DOCTYPE svg PUBLIC "-//W3C//DTD SVG 1.1//EN" "http://www.w3.org/Graphics/SVG/1.1/DTD/svg11.dtd">
<svg width="100%" height="100%" viewBox="0 0 25 27" version="1.1" xmlns="http://www.w3.org/2000/svg" xmlns:xlink="http://www.w3.org/1999/xlink" xml:space="preserve" xmlns:serif="http://www.serif.com/" style="fill-rule:evenodd;clip-rule:evenodd;stroke-linecap:round;stroke-linejoin:round;stroke-miterlimit:1.5;">
    <g transform="matrix(1,0,0,1,-4,-2.5)">
        <g transform="matrix(-0.94,0,0,0.962963,30.82,1.074074)">
            <path d="M28,4.012C28,3.596 27.773,3.212 27.404,3.004C27.036,2.795 26.581,2.794 26.212,3.001C21.637,5.563 9.539,12.338 4.873,14.951C4.496,15.162 4.266,15.556 4.273,15.981C4.28,16.405 4.522,16.791 4.905,16.991C9.607,19.436 21.706,25.727 26.245,28.087C26.615,28.28 27.061,28.269 27.421,28.058C27.78,27.847 28,27.468 28,27.059C28,22.106 28,9.041 28,4.012Z" style="fill:rgb(54,145,83);stroke:rgb(26,58,44);stroke-width:1.05px;"/>
        </g>
    </g>
</svg>
