<?xml version="1.0" encoding="UTF-8" standalone="no"?>
<!DOCTYPE svg PUBLIC "-//W3C//DTD SVG 1.1//EN" "http://www.w3.org/Graphics/SVG/1.1/DTD/svg11.dtd">
<svg width="100%" height="100%" viewBox="0 0 31 31" version="1.1" xmlns="http://www.w3.org/2000/svg" xmlns:xlink="http://www.w3.org/1999/xlink" xml:space="preserve" xmlns:serif="http://www.serif.com/" style="fill-rule:evenodd;clip-rule:evenodd;stroke-linecap:round;stroke-linejoin:round;stroke-miterlimit:1.5;">
    <g transform="matrix(1,0,0,1,-0.64588,-1.090083)">
        <g transform="matrix(0.576524,0,0,0.576524,6.782085,6.967667)">
            <g transform="matrix(1.334294,0,0,1.334294,-4.617656,-9.355121)">
                <path d="M4.842,12.5C4.354,12.5 3.885,12.694 3.54,13.04C3.194,13.385 3,13.854 3,14.342C3,17.126 3,22.374 3,25.158C3,26.175 3.825,27 4.842,27C9.468,27 21.532,27 26.158,27C27.175,27 28,26.175 28,25.158C28,22.374 28,17.126 28,14.342C28,13.854 27.806,13.385 27.46,13.04C27.115,12.694 26.646,12.5 26.158,12.5C25.145,12.5 23.925,12.5 23.069,12.5C22.408,12.5 21.798,12.146 21.47,11.572C21.179,11.064 20.821,10.436 20.53,9.928C20.202,9.354 19.592,9 18.931,9C17.199,9 13.801,9 12.069,9C11.408,9 10.798,9.354 10.47,9.928C10.179,10.436 9.821,11.064 9.53,11.572C9.202,12.146 8.592,12.5 7.931,12.5C7.075,12.5 5.855,12.5 4.842,12.5Z" style="fill:rgb(132,141,160);stroke:rgb(8,22,67);stroke-width:1.24px;"/>
            </g>
        </g>
        <g transform="matrix(0.576524,0,0,0.576524,6.782085,6.967667)">
            <g transform="matrix(1.353395,0,0,1.353395,-4.913718,-8.649771)">
                <circle cx="15.5" cy="18" r="6.5" style="fill:rgb(225,231,249);stroke:rgb(33,45,84);stroke-width:1.22px;"/>
            </g>
        </g>
        <g transform="matrix(-0.003485,-1.498047,1.498047,-0.003485,-9.31164,31.800789)">
            <path d="M14.308,8.544C10.129,7.566 12.461,11.625 12.461,11.625L10.132,7.569C15.337,7.569 19.562,11.795 19.562,17C19.562,20.369 17.792,23.328 15.132,24.996" style="fill:none;stroke:rgb(195,38,47);stroke-width:1.8px;"/>
        </g>
        <g transform="matrix(-0.749026,-1.297351,1.297351,-0.749026,1.509672,41.906738)">
            <path d="M2.407,22.409C5.181,25.008 5.132,20.079 5.132,20.079L5.132,24.996C2.471,23.328 0.701,20.369 0.701,17C0.701,11.795 4.927,7.569 10.132,7.569" style="fill:none;stroke:rgb(195,38,47);stroke-width:1.8px;"/>
        </g>
    </g>
</svg>
