<?xml version="1.0" encoding="UTF-8" standalone="no"?>
<!DOCTYPE svg PUBLIC "-//W3C//DTD SVG 1.1//EN" "http://www.w3.org/Graphics/SVG/1.1/DTD/svg11.dtd">
<svg width="100%" height="100%" viewBox="0 0 23 24" version="1.1" xmlns="http://www.w3.org/2000/svg" xmlns:xlink="http://www.w3.org/1999/xlink" xml:space="preserve" xmlns:serif="http://www.serif.com/" style="fill-rule:evenodd;clip-rule:evenodd;stroke-linecap:round;stroke-linejoin:round;stroke-miterlimit:1.5;">
    <g transform="matrix(1,0,0,1,-4.567636,-4.178462)">
        <path d="M5.715,13.257C5.277,13.089 5.051,12.606 5.202,12.162C5.636,10.816 6.349,9.596 7.25,8.541C7.573,8.172 8.13,8.125 8.511,8.433C9.414,9.142 10.692,9.25 11.75,8.639C12.809,8.027 13.354,6.866 13.234,5.723C13.16,5.259 13.469,4.82 13.931,4.732C14.596,4.564 15.291,4.5 16,4.5C16.709,4.5 17.404,4.564 18.078,4.688C18.564,4.78 18.889,5.242 18.811,5.731C18.646,6.866 19.191,8.027 20.25,8.639C21.308,9.25 22.586,9.142 23.516,8.466C23.879,8.172 24.41,8.217 24.718,8.569C25.651,9.596 26.364,10.816 26.838,12.148C26.997,12.614 26.759,13.121 26.3,13.297C25.234,13.723 24.5,14.777 24.5,16C24.5,17.223 25.234,18.277 26.285,18.743C26.723,18.911 26.949,19.394 26.798,19.838C26.364,21.184 25.651,22.404 24.75,23.459C24.427,23.828 23.87,23.875 23.489,23.567C22.586,22.858 21.308,22.75 20.25,23.361C19.191,23.973 18.646,25.134 18.766,26.277C18.84,26.741 18.531,27.18 18.069,27.268C17.404,27.436 16.709,27.5 16,27.5C15.291,27.5 14.596,27.436 13.922,27.312C13.436,27.22 13.111,26.758 13.189,26.269C13.354,25.134 12.809,23.973 11.75,23.361C10.692,22.75 9.414,22.858 8.484,23.534C8.121,23.828 7.59,23.783 7.282,23.431C6.349,22.404 5.636,21.184 5.162,19.852C5.003,19.386 5.241,18.879 5.7,18.703C6.766,18.277 7.5,17.223 7.5,16C7.5,14.777 6.766,13.723 5.715,13.257ZM20.44,14.81C19.783,12.36 17.261,10.904 14.81,11.56C12.36,12.217 10.904,14.739 11.56,17.19C12.217,19.64 14.739,21.096 17.19,20.44C19.64,19.783 21.096,17.261 20.44,14.81Z" style="fill:rgb(223,225,234);stroke:rgb(82,83,102);stroke-width:0.64px;"/>
    </g>
</svg>
